<?xml version="1.0" standalone="no"?>
<!DOCTYPE svg PUBLIC "-//W3C//DTD SVG 20010904//EN"
 "http://www.w3.org/TR/2001/REC-SVG-20010904/DTD/svg10.dtd">
<svg version="1.0" xmlns="http://www.w3.org/2000/svg"
 width="200.000000pt" height="200.000000pt" viewBox="0 0 200.000000 200.000000"
 preserveAspectRatio="xMidYMid meet">

<g transform="translate(0.000000,200.000000) scale(0.100000,-0.100000)"
fill="#000000" stroke="none">
<path d="M255 1530 c11 -5 45 -19 76 -30 30 -11 63 -26 73 -33 16 -12 15 -15
-23 -40 -23 -15 -41 -32 -41 -37 0 -6 20 -10 44 -10 76 0 81 -7 40 -53 -47
-51 -128 -222 -150 -312 -45 -195 23 -377 177 -468 75 -44 216 -90 349 -113
115 -20 345 -14 459 11 99 22 233 68 285 99 126 74 206 236 192 389 -11 116
-87 302 -162 393 -18 23 -30 44 -27 48 4 3 31 6 61 6 l55 0 -19 21 c-10 12
-32 28 -48 36 -16 8 -24 18 -20 23 5 5 50 25 99 44 79 31 85 35 54 36 -158 1
-504 -175 -596 -303 -35 -49 -76 -164 -71 -199 3 -17 8 -9 22 32 29 87 51 115
105 139 65 28 160 28 220 1 52 -24 67 -25 75 -5 3 8 17 15 32 15 33 0 85 -52
119 -120 32 -62 65 -183 65 -235 0 -85 -80 -194 -173 -234 -62 -27 -310 -108
-401 -131 -95 -24 -157 -25 -240 -5 -82 21 -359 112 -419 138 -67 29 -139 110
-161 180 -17 53 -16 57 5 143 34 140 94 240 159 266 20 7 27 5 41 -13 l17 -22
50 21 c99 43 239 21 291 -44 12 -15 29 -54 38 -86 21 -77 38 -60 18 17 -24 93
-51 140 -114 197 -72 67 -255 171 -363 209 -80 27 -237 51 -193 29z"/>
<path d="M865 1498 c-71 -4 -143 -11 -160 -16 l-30 -8 65 -37 c130 -72 216
-93 323 -76 60 9 215 78 238 105 22 27 -208 44 -436 32z"/>
<path d="M642 1182 c-37 -11 -91 -60 -113 -104 -31 -60 -24 -152 15 -203 80
-105 253 -96 314 15 11 19 23 54 27 76 22 137 -110 254 -243 216z m138 -32
c57 -29 84 -72 88 -145 7 -101 -43 -170 -135 -190 -72 -15 -170 41 -194 112
-27 82 13 192 82 226 46 22 112 21 159 -3z"/>
<path d="M640 1123 c-74 -38 -102 -132 -60 -201 59 -97 191 -92 242 9 62 120
-64 253 -182 192z m96 -14 c17 -19 17 -23 3 -47 -18 -33 -44 -39 -70 -16 -24
22 -24 39 1 64 25 25 42 25 66 -1z"/>
<path d="M1236 1175 c-47 -17 -94 -59 -112 -102 -29 -68 -8 -181 42 -225 83
-73 231 -57 290 31 65 98 25 244 -80 292 -48 22 -87 23 -140 4z m133 -20 c66
-33 108 -116 97 -189 -25 -155 -226 -206 -312 -79 -60 89 -24 228 71 269 40
18 109 17 144 -1z"/>
<path d="M1230 1118 c-53 -37 -73 -71 -72 -124 1 -81 73 -149 149 -141 58 6
91 30 115 84 33 76 6 152 -66 187 -47 22 -87 20 -126 -6z m92 -5 c32 -29 18
-83 -23 -83 -43 0 -67 69 -31 89 24 14 33 13 54 -6z"/>
<path d="M953 840 c-29 -12 -63 -67 -63 -101 0 -47 76 -96 132 -84 38 9 88 52
88 77 0 31 -40 95 -67 107 -28 13 -59 13 -90 1z m57 -99 c0 -6 -4 -13 -10 -16
-5 -3 -10 1 -10 9 0 9 5 16 10 16 6 0 10 -4 10 -9z"/>
</g>
</svg>
